<?xml version="1.0" standalone="no"?>
<!DOCTYPE svg PUBLIC "-//W3C//DTD SVG 1.1//EN" "http://www.w3.org/Graphics/SVG/1.1/DTD/svg11.dtd" >
<!--
2013-9-30: Created.
-->
<svg>
<metadata>
Created by iconfont
</metadata>
<defs>

<font id="iconfont" horiz-adv-x="1024" >
  <font-face
    font-family="iconfont"
    font-weight="500"
    font-stretch="normal"
    units-per-em="1024"
    ascent="896"
    descent="-128"
  />
    <missing-glyph />
    
    <glyph glyph-name="preview" unicode="&#58910;" d="M435.2 340.79999999999995a211.2 211.2 0 1 1 422.4 0 211.2 211.2 0 1 1-422.4 0zM646.4 792C377.6 792 169.6 590.4 104 340.79999999999995c65.6-248 272-451.2 542.4-451.2 268.8 0 475.2 201.6 542.4 451.2-65.6 248-272 451.2-542.4 451.2z m-64-630.4c-116.8 0-211.2 94.4-211.2 211.2 0 116.8 94.4 211.2 211.2 211.2 116.8 0 211.2-94.4 211.2-211.2 0-116.8-94.4-211.2-211.2-211.2zM601.6-128C296-128 73.6 102.39999999999998 0 384 75.2 667.2 297.6 896 601.6 896c305.6 0 528-230.4 601.6-512-73.6-283.2-296-512-601.6-512z m0 964.8c-268.8 0-476.8-201.6-542.4-451.2 65.6-248 272-451.2 542.4-451.2 268.8 0 475.2 201.6 542.4 451.2-64 248-272 451.2-542.4 451.2z m0-723.2c-150.4 0-270.4 121.6-270.4 270.4s121.6 270.4 270.4 270.4S872 532.8 872 384 752 113.60000000000002 601.6 113.60000000000002z m0 481.6c-116.8 0-211.2-94.4-211.2-211.2 0-116.8 94.4-211.2 211.2-211.2S812.8 267.20000000000005 812.8 384c0 116.8-94.4 211.2-211.2 211.2z"  horiz-adv-x="1204" />

    
    <glyph glyph-name="ico__fengkongshezhi" unicode="&#58921;" d="M924.8 768.768c-5.376-0.128-11.072-0.384-16.64-0.384-157.44 0-302.4 42.624-378.24 111.36L512 896l-17.92-16.256C418.176 811.136 273.28 768.512 115.84 768.512c-5.696 0-11.264 0.256-16.64 0.384L64 769.856v-469.824c0-234.88 419.584-415.936 437.376-423.552L512-128l10.624 4.48C540.416-115.84 960 65.024 960 299.968V769.92l-35.2-1.088zM896 305.792c0-169.472-321.792-317.248-384-344.192-62.208 26.944-384 174.656-384 344.192V691.84c154.112 0.128 298.304 38.72 384 101.76 85.696-63.168 229.888-101.632 384-101.76v-386.048zM485.632 588.48v-152.96h-158.08v-51.008h158.08v-152.96h52.736V384.64h158.08v51.008h-158.08V588.48h-52.736z"  horiz-adv-x="1024" />

    
    <glyph glyph-name="ico__bizhongguanli" unicode="&#58922;" d="M512.00512-128c-282.304 0-512 229.44-512 511.424a508.16 508.16 0 0 0 149.44 362.24A509.312 509.312 0 0 0 512.00512 894.848c109.312 0 213.504-34.112 301.44-98.56 2.432-0.128 3.264-0.768 5.632-3.2 128-97.536 202.752-246.976 204.928-409.664C1024.00512 101.44 794.30912-128 512.00512-128zM512.00512 839.68C264.45312 839.68 55.36512 630.656 55.36512 383.36c0-121.536 51.072-241.408 140.352-329.408l40.768 44.8a396.16 396.16 0 0 0-119.872 284.608c0 217.792 177.344 395.008 395.392 395.008 77.44 0 150.784-21.312 212.416-61.76l38.784 46.848A457.088 457.088 0 0 1 512.00512 839.68z m0-795.968c90.88 0 176.384 35.84 240.64 100.864A331.904 331.904 0 0 1 849.92512 383.36a340.288 340.288 0 0 1-340.096 339.712 340.288 340.288 0 0 1-340.032-339.712c0-187.264 153.6-339.712 342.272-339.712zM806.14912 730.88l-36.544-44.672a394.048 394.048 0 0 0 137.792-300.544c0-217.792-177.344-394.944-395.392-394.944a398.656 398.656 0 0 0-232.768 75.136l-40.96-44.928A446.016 446.016 0 0 1 512.00512-72.704c247.552 0 456.704 208.896 456.704 456.128 0 132.672-59.264 259.136-162.56 347.456zM379.78112 406.848a25.408 25.408 0 0 0 0 50.688h78.848L378.43712 537.6a25.344 25.344 0 0 0 0 35.84 25.984 25.984 0 0 0 35.84 0l99.52-99.392L613.25312 573.44a25.984 25.984 0 0 0 35.84 0 25.152 25.152 0 0 0 0-35.84L568.96512 457.6h76.48a25.344 25.344 0 1 0 0-50.688h-107.52v-43.2h107.52a25.408 25.408 0 0 0 0-50.688h-107.52v-102.208a25.344 25.344 0 0 0-50.624 0V312.96H379.78112a25.408 25.408 0 0 0 0 50.688h107.456v43.2H379.78112z"  horiz-adv-x="1024" />

    
    <glyph glyph-name="ico__heimingdanguanli" unicode="&#58923;" d="M505.408-59.264H101.312s-3.968 0-3.968 8.064v72.192c3.968 18.112 37.632 42.176 152.512 114.432 19.84 14.08 41.6 28.096 65.408 38.144-9.92-8.064 27.712 18.048 37.632 24.064 41.6 28.096 69.312 64.192 69.312 114.368 0 24.064-5.952 46.144-19.84 70.272-5.888 14.08-17.792 24.064-23.744 38.08l-3.968 8.064-5.952 10.048c-9.92 14.08-17.792 32.064-27.712 50.176-13.888 32.064-19.84 68.224-19.84 120.384 0 116.416 79.232 220.8 176.32 220.8h13.888c97.024 0 176.256-102.4 176.256-220.8 0-38.144-3.968-68.224-9.92-92.288-3.968-10.048 0-24.128 9.92-36.16 9.92-8 19.84-10.048 33.664-10.048 13.888 0 19.84 14.08 23.744 24.128a599.488 599.488 0 0 1 9.92 110.336C754.944 757.504 649.984 896 513.28 896h-13.824C360.768 896 257.792 757.504 257.792 604.992c0-64.192 5.952-106.368 23.808-148.48 5.888-18.048 17.792-36.16 31.68-60.16 3.968-8.064 5.952-10.112 9.856-18.112 13.888-22.08 17.856-24.064 23.808-36.16 5.952-14.016 9.92-24.064 9.92-36.096 0-18.048-13.888-36.096-37.632-54.208-9.92-8-45.568-28.096-33.728-22.08l-35.648-20.032-31.68-16C79.552 109.248 49.92 83.2 35.968 36.992 32 25.024 32 19.008 32 11.008v-64.256c0-42.112 31.68-74.24 73.28-74.24h400.128c17.792 0 33.664 14.08 33.664 36.096 1.92 18.112-15.872 32.128-33.664 32.128zM735.296-62.336c111.232 0 201.792 88.96 201.792 198.4 0 109.312-90.56 198.4-201.792 198.4-111.296 0-201.856-89.088-201.856-198.4 0-109.44 90.56-198.4 201.856-198.4z m0-49.6c-139.328 0-252.288 111.04-252.288 248C483.008 273.024 595.968 384 735.296 384c139.328 0 252.288-111.04 252.288-247.936 0-136.96-112.96-248-252.288-248z m-150.4 129.92l269.056 269.056a25.6 25.6 0 0 0 36.224-36.224l-269.12-269.056a25.6 25.6 0 0 0-36.224 36.224z"  horiz-adv-x="1024" />

    
    <glyph glyph-name="ico__gonggaoguanli" unicode="&#58924;" d="M621.202286-127.780571c-7.314286 0-14.628571 0-18.285715 3.364571L245.028571 70.582857H36.790857c-21.942857 0-36.571429 13.165714-36.571428 33.060572v528.822857c0 19.821714 14.628571 33.060571 36.498285 33.060571h211.894857L599.259429 890.294857a47.250286 47.250286 0 0 0 36.571428 3.291429c14.628571-6.582857 21.869714-16.530286 21.869714-29.769143v-958.537143c0-13.165714-7.314286-23.113143-18.285714-29.696-7.241143-3.364571-10.898286-3.364571-18.285714-3.364571z m-547.84 264.411428h182.564571c7.314286 0 14.628571 0 18.285714-3.291428l310.418286-168.521143V801.060571L281.6 605.988571a55.588571 55.588571 0 0 0-21.942857-6.582857H73.362286v-462.774857z m730.550857-9.874286a34.816 34.816 0 0 0-25.673143 9.947429 29.915429 29.915429 0 0 0 0 46.226286c120.539429 112.420571 120.539429 290.889143 0 399.945143a30.72 30.72 0 0 0-10.971429 23.113142 30.72 30.72 0 0 0 10.971429 23.186286 36.937143 36.937143 0 0 0 25.6 9.947429c9.728 0 19.017143-3.657143 25.6-9.947429 149.723429-135.533714 149.723429-353.645714 0-492.470857a34.816 34.816 0 0 0-25.6-9.947429zM939.008-74.898286a34.816 34.816 0 0 0-25.6 9.947429 30.72 30.72 0 0 0-10.971429 23.113143 30.72 30.72 0 0 0 10.971429 23.186285c244.736 221.403429 244.736 581.705143 0 803.108572a30.72 30.72 0 0 0-10.971429 23.186286 30.72 30.72 0 0 0 10.971429 23.113142 36.937143 36.937143 0 0 0 25.6 9.947429c9.728 0 19.017143-3.657143 25.6-9.947429 273.92-247.881143 273.92-647.826286 0-895.707428a34.816 34.816 0 0 0-25.6-9.947429z"  horiz-adv-x="1170" />

    
    <glyph glyph-name="ico__feishuaishezhi" unicode="&#58925;" d="M162.74432 697.417143a32.768 32.768 0 0 0-32.548571 32.987428c0 18.285714 14.628571 32.987429 32.548571 32.987429h844.8c17.993143 0 32.548571-14.774857 32.548571-32.987429 0-18.285714-14.628571-32.987429-32.548571-32.987428v-66.048h97.499429V829.44H65.244891v-198.070857h97.499429v66.048z m64.950857 0v-731.428572c0-14.848 13.970286-27.940571 32.475429-27.940571h649.947428c18.505143 0 32.475429 13.165714 32.475429 27.940571V311.003429c0 18.212571 14.555429 32.987429 32.475428 32.987428s32.475429-14.774857 32.475429-32.987428v-345.014858c0-52.516571-44.178286-93.988571-97.426286-93.988571H260.170606c-53.248 0-97.426286 41.472-97.426286 93.988571V565.321143H65.244891a65.536 65.536 0 0 0-65.024 66.048V829.44C0.220891 866.011429 29.331749 895.488 65.244891 895.488h1039.798858c17.261714 0 33.792-6.948571 45.933714-19.309714a66.56 66.56 0 0 0 19.017143-46.738286v-198.070857a65.536 65.536 0 0 0-64.950857-66.048h-97.499429v-93.184c0-18.212571-14.555429-32.987429-32.475429-32.987429a32.768 32.768 0 0 0-32.475428 32.987429v225.28H227.695177z m507.099429-221.476572a32.182857 32.182857 0 0 0 31.597714 8.996572 33.353143 33.353143 0 0 0 14.336-55.661714l-321.682286-326.948572a32.182857 32.182857 0 0 0-31.597714-8.923428 33.353143 33.353143 0 0 0-14.262857 55.734857l321.682286 326.875428v-0.073143z m-19.675429-405.869714a98.304 98.304 0 0 0-97.499428 99.035429c0 54.710857 43.666286 99.108571 97.499428 99.108571s97.499429-44.397714 97.499429-99.108571c0-54.637714-43.666286-99.035429-97.499429-99.035429z m0 66.048a32.768 32.768 0 0 1 32.475429 32.987429 32.768 32.768 0 0 1-32.475429 33.060571 32.768 32.768 0 0 1-32.475428-33.060571c0-18.212571 14.555429-32.914286 32.475428-32.914286zM455.169463 334.262857A98.304 98.304 0 0 0 357.670034 433.298286c0 54.637714 43.666286 99.035429 97.499429 99.035428s97.499429-44.397714 97.499428-99.035428c0-54.710857-43.666286-99.108571-97.499428-99.108572z m0 66.048a32.768 32.768 0 0 1 32.475428 33.060572 32.768 32.768 0 0 1-32.475428 32.914285 32.768 32.768 0 0 1-32.475429-32.914285c0-18.285714 14.555429-33.060571 32.475429-33.060572z"  horiz-adv-x="1170" />

    
    <glyph glyph-name="ico__dailishangguanli" unicode="&#58926;" d="M502.208-59.264H100.864s-3.968 0-3.968 8.064v72.192c3.968 18.112 37.44 42.176 151.552 114.432a347.52 347.52 0 0 0 64.896 38.144c-9.856-8.064 27.52 18.048 37.376 24.064 41.344 28.096 68.864 64.192 68.864 114.368 0 24.064-5.888 46.144-19.648 70.272-5.888 14.08-17.728 24.064-23.68 38.08l-3.84 8.064-5.952 10.048c-9.856 14.08-17.728 32.064-27.52 50.176-13.76 32.064-19.712 68.224-19.712 120.384 0 116.416 78.72 220.8 175.104 220.8h13.824c96.384 0 175.104-102.4 175.104-220.8 0-38.144-3.968-68.224-9.856-92.288-3.968-10.048 0-24.128 9.856-36.16 9.792-8 19.648-10.048 33.408-10.048 13.76 0 19.712 14.08 23.68 24.128a603.392 603.392 0 0 1 9.792 110.336C750.08 757.504 645.76 896 510.08 896h-13.824c-137.728 0-240-138.496-240-291.008 0-64.192 5.888-106.368 23.616-148.48 5.888-18.048 17.664-36.16 31.424-60.16 3.968-8.064 5.952-10.112 9.856-18.112 13.76-22.08 17.728-24.064 23.616-36.16 5.888-14.016 9.856-24.064 9.856-36.096 0-18.048-13.76-36.096-37.376-54.208-9.856-8-45.248-28.096-33.472-22.08l-35.392-20.032-31.488-16C79.232 109.248 49.728 83.2 35.84 36.992 32 25.024 32 19.008 32 11.008v-64.256c0-42.112 31.488-74.24 72.768-74.24h397.44c17.728 0 33.472 14.08 33.472 36.096 1.92 18.112-15.744 32.128-33.472 32.128zM608 151.36c3.584-15.68 6.528-30.592 8.832-44.8 8.512 10.112 16.64 20.544 24.192 31.36v-119.936h32.064v173.824c8.64 17.408 16.064 35.392 22.272 53.76L662.08 256A355.008 355.008 0 0 0 608 151.36z m166.72 82.304c13.056-9.6 26.368-21.44 40.064-35.328 6.08 6.144 13.632 13.568 22.784 22.272a486.784 486.784 0 0 1-42.368 33.664l-20.48-20.608z m-88.896-88.32l49.344 6.016c11.008-89.92 36.352-134.848 75.968-134.848a28.8 28.8 0 0 1 27.264 16.448c5.76 11.008 10.24 26.56 13.632 46.72a202.88 202.88 0 0 0-30.144 16.512 218.624 218.624 0 0 0-4.48-26.176 55.936 55.936 0 0 0-4.864-15.488c-1.28-1.728-2.688-2.56-4.224-2.56-4.928 0-11.328 7.296-19.264 21.76-7.936 14.528-14.912 41.792-20.992 81.664l78.72 9.792-2.88 30.272-79.296-9.472c-1.792 21.12-2.816 43.648-2.944 67.584h-33.92c0.64-25.792 2.048-49.6 3.968-71.424l-49.792-5.824 3.904-31.04zM730.56-62.336c110.528 0 200.512 88.96 200.512 198.4 0 109.312-89.984 198.4-200.512 198.4s-200.448-89.088-200.448-198.4c0-109.44 89.92-198.4 200.448-198.4z m0-49.6C592.192-111.936 480-0.896 480 136.064 480 273.024 592.192 384 730.56 384c138.432 0 250.624-111.04 250.624-247.936 0-136.96-112.192-248-250.624-248z"  horiz-adv-x="1024" />

    
    <glyph glyph-name="ico__jiankongtongji" unicode="&#58927;" d="M513.6 825.6L441.6 824c-246.4-19.2-441.6-224-441.6-475.2C0 86.4 212.8-128 476.8-128c251.2 0 457.6 195.2 475.2 441.6l1.6 72H513.6V825.6z m368-512c-17.6-219.2-192-369.6-404.8-369.6-224 0-406.4 182.4-406.4 406.4C70.4 563.2 222.4 736 441.6 755.2v-440l440-1.6zM550.4 896v-473.6H1024c0 256-217.6 473.6-473.6 473.6z m73.6-76.8c36.8-4.8 56-14.4 84.8-25.6 48-20.8 89.6-49.6 128-86.4 36.8-36.8 65.6-76.8 86.4-126.4 12.8-28.8 19.2-48 25.6-84.8H624V819.2z"  horiz-adv-x="1024" />

    
    <glyph glyph-name="ico__jiankongpeizhi" unicode="&#58928;" d="M987.075765 168.116706H599.341176a16.082824 16.082824 0 0 0-16.082823 15.721412v37.285647a15.902118 15.902118 0 0 0 16.082823 15.661176h387.674353c8.673882 0 15.841882-6.987294 15.962353-15.661176v-37.285647a15.841882 15.841882 0 0 0-15.962353-15.661177z m0-137.697882H599.341176a16.082824 16.082824 0 0 0-16.082823 15.661176v37.345882a15.902118 15.902118 0 0 0 16.082823 15.661177h387.674353c8.673882 0 15.841882-6.987294 15.962353-15.661177v-37.165176a16.022588 16.022588 0 0 0-15.962353-15.841882z m0-137.697883H599.341176a16.082824 16.082824 0 0 0-16.082823 15.661177v37.285647a15.902118 15.902118 0 0 0 16.082823 15.661176h387.674353c8.673882 0 15.841882-6.987294 15.962353-15.661176v-37.165177a16.022588 16.022588 0 0 0-15.962353-15.781647z m-473.750589 350.268235V173.176471c-112.941176 0-204.8 90.473412-204.8 201.667764 0 111.134118 91.858824 201.607529 204.8 201.60753s204.8-90.473412 204.8-201.60753c0-23.612235-3.975529-46.923294-12.227764-68.909176h-78.787765c13.131294 20.540235 19.998118 44.513882 19.998118 68.909176 0 72.463059-60.114824 131.493647-133.903059 131.493647-73.667765 0-133.722353-59.030588-133.722353-131.493647 0.060235-72.764235 60.054588-131.794824 133.842823-131.794823z m-16.865882-280.154352a17.106824 17.106824 0 0 0 12.047059-4.818824 17.167059 17.167059 0 0 0 4.939294-11.866353v-36.683294a16.865882 16.865882 0 0 0-16.865882-16.624941H429.778824a59.452235 59.452235 0 0 0-59.994353 56.139294l-9.758118 70.716235a395.866353 395.866353 0 0 0-82.341647 46.682353l-66.921412-26.925176c-28.431059-14.396235-63.247059-4.397176-79.510588 22.949647L47.344941 204.920471a58.428235 58.428235 0 0 0 19.516235 79.269647l57.344 43.670588a351.774118 351.774118 0 0 0 0 93.545412l-57.223529 43.670588a58.428235 58.428235 0 0 0-19.636706 78.908235l83.787294 142.757647c16.263529 27.346824 50.959059 37.345882 79.390118 23.070118l67.041882-26.864941c25.298824 18.913882 53.187765 34.514824 82.341647 46.622117l9.758118 70.595765a59.392 59.392 0 0 0 59.873882 56.32h167.454118c32.165647 0 58.428235-24.696471 59.873882-56.199529l9.758118-70.716236c29.274353-12.107294 57.042824-27.828706 82.522353-46.622117l66.981647 26.74447a60.837647 60.837647 0 0 0 79.390118-22.949647l83.546353-142.576941a58.428235 58.428235 0 0 0-19.395765-79.269647l-57.103059-43.610353a362.014118 362.014118 0 0 0 0-93.545412l28.912941-21.985882h-104.628706l2.529883 13.191529a297.200941 297.200941 0 0 1 0 111.435294l-3.855059 20.660706 87.341176 66.56-74.691764 127.457883-101.195294-42.767059-16.564706 13.974588a318.885647 318.885647 0 0 1-98.063059 55.416471l-20.118588 7.28847-15.058824 107.52H439.356235l-14.878117-107.760941-20.118589-7.228235a320.873412 320.873412 0 0 1-98.183529-55.597177l-16.444235-13.673411-102.098824 41.200941L113.784471 517.722353l87.341176-66.56-3.794823-20.841412a310.814118 310.814118 0 0 1-5.421177-55.536941c0.180706-18.672941 1.927529-37.345882 5.300706-55.717647l3.674353-20.841412-87.220706-66.56 74.932706-127.457882 101.074823 42.767059 16.685177-13.854118a318.885647 318.885647 0 0 1 98.063059-55.416471l20.118588-7.28847 14.878118-107.700706h57.042823v0.120471z"  horiz-adv-x="1024" />

    
    <glyph glyph-name="ico__qukuailianzhanghuguanli" unicode="&#58929;" d="M1066.422857 520.192c19.236571 0 34.742857-15.140571 34.742857-33.938286v-510.976a34.230857 34.230857 0 0 0-34.596571-33.938285H378.953143a34.230857 34.230857 0 0 0-34.596572 33.938285V486.253714c0 18.797714 15.36 33.938286 34.669715 33.938286h308.662857c18.944 0 34.377143 15.286857 34.377143 34.084571a34.230857 34.230857 0 0 1-34.377143 34.011429h-308.662857c-57.197714 0-103.497143-45.568-103.497143-102.034286v-510.976c0-56.466286 46.299429-102.034286 103.350857-102.034285h687.689143c57.051429 0 103.350857 45.641143 103.350857 102.034285V486.253714c0 56.466286-46.299429 102.034286-103.497143 102.034286h-66.633143c-19.017143 0-34.377143-15.213714-34.377143-34.011429s15.36-34.084571 34.377143-34.084571h66.706286zM103.862857 247.808a34.230857 34.230857 0 0 0-34.742857 33.938286V792.722286c0 18.724571 15.506286 33.938286 34.596571 33.938285h687.616c19.163429 0 34.596571-15.140571 34.596572-33.938285v-510.976c0-18.797714-15.36-33.938286-34.669714-33.938286h-308.662858c-18.944 0-34.377143-15.286857-34.377142-34.084571s15.433143-34.011429 34.377142-34.011429h308.662858c57.197714 0 103.497143 45.568 103.497142 102.034286V792.722286C894.756571 849.188571 848.457143 894.756571 791.405714 894.756571H103.716571C46.665143 894.756571 0.365714 849.188571 0.365714 792.722286v-510.976c0-56.466286 46.299429-102.034286 103.424-102.034286h66.706286c19.017143 0 34.377143 15.213714 34.377143 34.011429a34.230857 34.230857 0 0 1-34.377143 34.084571h-66.706286z"  horiz-adv-x="1170" />

    
    <glyph glyph-name="ico__shouqi" unicode="&#58930;" d="M78.769231 896m39.384615 0l1181.538462 0q39.384615 0 39.384615-39.384615l0 0q0-39.384615-39.384615-39.384616l-1181.538462 0q-39.384615 0-39.384615 39.384616l0 0q0 39.384615 39.384615 39.384615ZM78.769231 502.153846m39.384615 0l708.923077 0q39.384615 0 39.384615-39.384615l0 0q0-39.384615-39.384615-39.384616l-708.923077 0q-39.384615 0-39.384615 39.384616l0 0q0 39.384615 39.384615 39.384615ZM78.769231 108.307692m39.384615 0l708.923077 0q39.384615 0 39.384615-39.384615l0 0q0-39.384615-39.384615-39.384615l-708.923077 0q-39.384615 0-39.384615 39.384615l0 0q0 39.384615 39.384615 39.384615Z"  horiz-adv-x="1417" />

    
    <glyph glyph-name="ico__jiankongjilu" unicode="&#58931;" d="M866.432 896H157.568A157.568 157.568 0 0 1 0 738.432v-708.864A157.568 157.568 0 0 1 157.568-128h708.864A157.568 157.568 0 0 1 1024 29.568V738.432A157.568 157.568 0 0 1 866.432 896z m87.872-480.64v-393.216c0-44.48-36.032-80.448-80.448-80.448H150.144a80.32 80.32 0 0 0-80.448 80.448V745.856c0 44.48 35.968 80.448 80.448 80.448h723.712c44.416 0 80.448-35.968 80.448-80.448v-362.176 31.68z m-42.368 2.432h-74.24l-51.712 132.224a33.344 33.344 0 0 1-30.976 21.44h-0.064a33.472 33.472 0 0 1-30.976-21.312l-140.16-355.2-68.864 513.92a33.6 33.6 0 0 1-28.992 29.12 33.28 33.28 0 0 1-35.008-21.12l-144.768-370.56-85.312 68.544a33.408 33.408 0 0 1-20.608 7.296H112a33.6 33.6 0 0 1-33.28-33.92c0-18.944 14.848-34.176 33.28-34.176H188.8l111.296-89.28a33.28 33.28 0 0 1 51.584 14.208l114.368 292.8 68.864-513.088a33.6 33.6 0 0 1 33.088-29.44 33.28 33.28 0 0 1 30.848 21.312l156.096 395.456 29.248-74.88a33.408 33.408 0 0 1 31.04-21.376h96.832a33.536 33.536 0 0 1 33.28 33.92 33.728 33.728 0 0 1-33.344 34.112z"  horiz-adv-x="1024" />

    
    <glyph glyph-name="ico__jiaoyichaxun" unicode="&#58932;" d="M344.06283 896h481.366272c137.815222 0 250.333857-111.568185 250.333857-248.725403v-131.015851s0-47.083821-35.459089-47.083821c-35.5322 0-34.508639 47.083821-34.508639 47.083821V647.274597A180.073683 180.073683 0 0 1 825.429102 826.39783H344.06283a180.073683 180.073683 0 0 1-180.366129-179.123233v-117.197773l44.59803 44.524918 49.642724-49.130944s-86.198486-117.709553-131.235185-117.709553C81.59246 407.761245 0 525.470798 0 525.470798l49.715836 49.130944 44.598029-44.524918V647.274597A249.456519 249.456519 0 0 0 343.989719 896z m567.491647-671.968014s82.104241 108.497501 130.211623 108.497501c48.180494 0 127.725832-108.497501 127.725832-108.497501l-49.715836-49.130944-44.598029 44.524918v-98.261887c0-137.157218-111.860631-248.725403-250.260746-248.725404H343.624161c-137.815222 0-250.333857 111.568185-250.333857 248.725404V232.732258s-0.511781 47.083821 34.508639 47.083821c34.947308 0 34.947308-47.083821 34.947309-47.083821v-111.568185a180.073683 180.073683 0 0 1 180.366128-179.123233h481.366272a180.073683 180.073683 0 0 1 180.366129 179.123233V219.42596l-44.59803-44.524918-48.619163 49.130944zM636.435813 566.413251V425.161788c92.705412-11.770955 146.954163-64.996145 146.954163-148.416393 0-83.420248-54.248751-136.645438-146.954163-148.416393v-41.454234s-9.13894-14.841639-40.065115-14.841639c-30.853063 0-39.992003 14.841639-39.992003 14.841639V128.329002c-92.705412 11.770955-146.954163 64.996145-146.954163 148.416393 0 0 11.112952 10.747394 41.527346 10.747394 30.414394 0 38.529773-10.747394 38.529773-10.747394 0-14.841639 0-56.295873 66.897044-68.066829V349.93003C463.673283 361.700985 409.424532 414.926174 409.424532 498.346423c0 83.420248 54.248751 136.645438 146.954163 148.416393V675.934314s6.068256 28.147937 39.992003 28.147936c33.996858 0 40.065115-28.147937 40.065115-28.147936v-29.683279c92.705412-11.770955 146.954163-64.996145 146.954163-148.416393 0 0-10.674282-13.818078-37.506212-13.818078-27.34371 0-42.039126 13.818078-42.039126 13.818078-1.023561 15.35342-1.023561 56.807654-67.408825 68.578609z m-146.954162-68.066828c0-14.841639 0-56.295873 66.897044-68.066829V566.413251c-66.897044-11.770955-66.897044-53.225189-66.897044-68.066828z m146.954162-154.04598v-136.133657c66.897044 11.770955 66.897044 52.713409 66.897044 68.066828-0.511781 15.35342-0.511781 56.807654-66.897044 68.066829z"  horiz-adv-x="1169" />

    
    <glyph glyph-name="ico__zhankai" unicode="&#58933;" d="M78.724842 896m39.362421 0l1180.872631 0q39.362421 0 39.362421-39.362421l0 0q0-39.362421-39.362421-39.362421l-1180.872631 0q-39.362421 0-39.362421 39.362421l0 0q0 39.362421 39.362421 39.362421ZM78.724842 502.37579m39.362421 0l1180.872631 0q39.362421 0 39.362421-39.362421l0 0q0-39.362421-39.362421-39.362421l-1180.872631 0q-39.362421 0-39.362421 39.362421l0 0q0 39.362421 39.362421 39.362421ZM78.724842 108.751579m39.362421 0l1180.872631 0q39.362421 0 39.362421-39.362421l0 0q0-39.362421-39.362421-39.362421l-1180.872631 0q-39.362421 0-39.362421 39.362421l0 0q0 39.362421 39.362421 39.362421Z"  horiz-adv-x="1417" />

    
    <glyph glyph-name="ico__xinyongdengji" unicode="&#58934;" d="M773.632 586.688l110.848 82.56V822.272H138.752v-152.96l107.84-80.448a411.392 411.392 0 0 0 262.272 93.504c100.864 0 193.344-36.032 264.768-95.744z m-580.224-50.432L77.312 622.912 73.6 629.12a63.36 63.36 0 0 0-9.344 32.96V833.28A62.144 62.144 0 0 0 125.696 896h771.968a62.08 62.08 0 0 0 61.376-62.656v-171.2a64 64 0 0 0-9.344-33.088l-3.712-6.144-119.552-89.28a400.384 400.384 0 0 0 92.48-256.256 402.496 402.496 0 0 0-120.064-286.4 412.672 412.672 0 0 0-289.984-118.656c-226.56 0-410.112 181.376-410.112 405.12 0 98.432 35.584 188.608 94.72 258.752z m315.456 72.576c-185.28-0.064-335.616-148.48-335.616-331.456 0-183.04 150.208-331.328 335.552-331.328 185.28 0 335.488 148.352 335.488 331.328a329.344 329.344 0 0 1-98.304 234.368A337.664 337.664 0 0 1 508.8 608.768v0.064z m160-171.2a225.216 225.216 0 0 0 67.072-160.256c0-125.056-102.08-225.92-227.072-225.92-125.12 0-227.2 100.864-227.2 225.92 0 125.12 102.08 225.92 227.2 225.92 59.904 0 117.44-23.616 160-65.664zM350.72 277.376c0-85.056 70.4-154.688 158.08-154.688s158.208 69.632 158.208 154.688a152.96 152.96 0 0 1-45.824 108.8 160 160 0 0 1-112.384 45.888c-87.616 0-158.08-69.632-158.08-154.688z"  horiz-adv-x="1024" />

    
    <glyph glyph-name="ico__touziyonghuguanli" unicode="&#58935;" d="M1015.297632 193.283759c-3.967256 24.059489-23.675561 42.168093-45.239518 42.168094a31.354121 31.354121 0 0 0-31.482097 32.057989c0 4.031244 0 8.062488 3.903268 10.046116 9.854152 24.059489 3.967256 54.197838-19.644317 68.211211l-58.996938 32.121977a54.517778 54.517778 0 0 1-60.980566-14.077361c-5.950884-7.9985-19.708305-18.044617-23.675561-18.044616-3.83928 0-17.660689 10.046116-27.514841 18.044616a57.077298 57.077298 0 0 1-41.272261 18.108605c-5.886896 0-13.75742 0-23.675561-8.062488l-58.93295-36.089234c-19.708305-14.07736-27.514841-42.168093-17.724677-68.21121 0-4.031244 3.903268-8.062488 3.903269-10.046116 0-18.044617-17.660689-32.121977-31.41811-32.121978-19.708305 0-41.336249-18.044617-45.303505-42.104105 0 0-5.886896-28.154721-5.886896-50.166594 0-22.075861 3.967256-50.166594 3.967256-50.166594 3.903268-24.059489 23.611573-42.168093 47.223145-42.168093a31.354121 31.354121 0 0 0 31.41811-32.057989c0-4.031244 0-8.062488-3.903269-10.046116-9.854152-24.059489-3.967256-50.166594 19.644317-68.211211l59.060926-32.121977a50.870462 50.870462 0 0 1 60.980566 14.07736c5.886896 7.9985 19.644317 18.044617 27.514841 18.044617 3.967256 0 17.724677-10.046116 27.514841-18.108605a57.077298 57.077298 0 0 1 41.33625-18.044616c5.886896 0 13.75742 0 23.611573 8.062488l58.996938 32.057989c19.708305 14.07736 27.514841 42.168093 17.724676 68.275199 0 3.967256-3.967256 7.9985-3.967256 9.982128a31.354121 31.354121 0 0 0 31.482097 32.121977c23.675561 0 41.336249 18.044617 45.239518 46.13535 3.967256 10.046116 3.967256 32.121977 3.967256 50.166594-3.967256 18.044617-7.870524 38.136849-7.870524 50.166593z m-55.09367-90.287071c-45.239518-4.031244-78.705243-38.136849-78.705243-84.272199 0-10.046116 3.967256-22.075861 5.950884-32.121977l-51.190402-28.090733c-3.903268 4.031244-33.401737 36.153221-64.883834 36.153221s-60.980566-32.121977-64.947822-38.136849l-51.126414 28.090733c3.967256 4.031244 5.886896 18.044617 5.886896 32.121977 0 46.071362-33.401737 82.224583-78.705243 84.272199 0 3.967256-3.83928 24.059489-3.83928 38.072861 0 14.07736 3.83928 32.121977 3.83928 38.13685 45.303506 4.031244 78.705243 38.136849 78.705243 84.272199 0 14.07736-5.886896 28.154721-9.790164 32.121977l55.029682 32.121977c3.967256-4.031244 33.465725-36.153221 64.947822-36.153221 31.482097 0 60.980566 32.121977 60.980566 36.153221l51.190402-28.154721c-3.967256-7.9985-5.950884-18.044617-5.950884-32.057989 0-46.13535 33.401737-82.288571 78.705243-84.272199 3.903268-14.07736 3.903268-28.090733 3.903268-38.136849 7.870524-10.046116 3.967256-22.075861 0-40.120478zM470.375805-59.532838H69.107042s-3.967256 0-3.967256 8.062489v72.178466c3.967256 18.108605 37.368993 42.168093 151.52359 114.410548a347.454852 347.454852 0 0 0 64.883834 38.13685c-9.854152-8.062488 27.514841 18.044617 37.368993 24.059488 41.336249 28.090733 68.85109 64.179966 68.851091 114.34656 0 24.059489-5.886896 46.13535-19.644317 70.258827-5.950884 14.07736-17.724677 24.059489-23.675561 38.072861l-3.83928 8.062489-5.950884 10.046116c-9.854152 14.07736-17.724677 32.057989-27.514841 50.166594-13.821408 32.057989-19.708305 68.21121-19.708305 120.361432 0 116.394176 78.705243 220.758608 175.071174 220.758608h13.757421c96.429919 0 175.135162-102.380804 175.135162-220.758608 0-38.136849-3.967256-68.21121-9.854152-92.270699-3.967256-10.046116 0-24.123477 9.854152-36.153222 9.790164-7.9985 19.644317-10.046116 33.401737-10.046116 13.75742 0 19.708305 14.07736 23.675561 24.123477a603.278885 603.278885 0 0 1 9.790164 110.315316c0 152.483409-104.300444 290.953446-239.955008 290.953446h-13.821409c-137.702181 0-239.955008-138.470037-239.955008-290.953446 0-64.179966 5.886896-106.34806 23.547585-148.452165 5.950884-18.044617 17.724677-36.153221 31.482097-60.148723 3.967256-8.062488 5.950884-10.110104 9.854152-18.108604 13.75742-22.075861 17.724677-24.059489 23.611573-36.089233 5.886896-14.07736 9.854152-24.123477 9.854152-36.153222 0-18.044617-13.821408-36.089233-37.368993-54.197838-9.854152-7.9985-45.303506-28.090733-33.465725-22.011872l-35.385365-20.092233-31.482097-15.997001C47.479098 108.947572 17.916641 82.840467 4.15922 36.705118c-3.903268-12.029744-3.903268-18.044617-3.903268-26.043117v-64.243954c0-42.104105 31.482097-74.226083 72.754359-74.226083h397.365494c17.724677 0 33.465725 14.07736 33.465725 36.089233 1.91964 18.108605-15.741049 32.121977-33.465725 32.121977zM775.278635 245.433981c55.09367 0 100.333188-46.071362 100.333188-102.316815 0-56.181466-45.239518-102.316816-100.333188-102.316816-55.029682 0-100.333188 46.13535-100.333187 102.380804 0 56.117478 45.303506 102.252828 100.333187 102.252827z m0-156.450665c27.514841 0 51.190402 24.059489 51.190402 50.102605 0 28.154721-23.675561 54.197838-51.190402 54.197838-19.644317 4.031244-37.368993-7.9985-47.223145-24.059489-9.790164-14.07736-9.790164-36.153221 0-54.197837 9.854152-14.07736 27.514841-26.043117 47.223145-26.043117z"  horiz-adv-x="1024" />

    
    <glyph glyph-name="ico__zichanguanli" unicode="&#58936;" d="M1098.166857 450.194286a364.251429 364.251429 0 0 1-170.276571 123.611428c0.585143 48.054857 1.170286 166.838857 1.170285 168.667429 0 34.377143-23.405714 82.505143-135.68 117.540571-72.557714 22.601143-170.276571 35.108571-268.434285 35.108572-98.377143 0-196.608-13.165714-268.580572-35.108572C144.018286 825.051429 120.685714 776.850286 120.685714 742.473143l0.512-96.256C85.577143 633.782857 58.075429 619.52 38.180571 603.428571c-25.161143-20.187429-38.034286-43.300571-38.034285-69.485714l2.340571-191.780571c0-20.845714 15.798857-40.96 46.811429-62.976 2.340571-1.170286 5.851429-3.657143 11.117714-6.582857L62.171429 76.068571v-2.413714l0.585142-1.755428c11.044571-43.885714 60.781714-78.409143 146.285715-102.765715 70.217143-19.602286 163.108571-31.451429 254.976-31.451428 42.130286 0 87.186286 2.925714 132.754285 8.850285a352.548571 352.548571 0 0 1 214.747429-73.581714c197.705143 0 357.961143 161.499429 357.961143 360.521143a348.964571 348.964571 0 0 1-71.314286 216.722286zM275.675429 794.112C342.381714 815.469714 431.835429 826.733714 526.628571 826.733714c95.378286 0 184.905143-11.849143 251.611429-32.621714 63.707429-20.187429 86.601143-42.788571 86.601143-52.882286-1.828571 0.585143-1.828571-1.170286-4.754286-5.339428-1.170286-1.170286-3.437714-4.169143-4.608-5.339429l-0.585143-0.585143a48.932571 48.932571 0 0 0-5.851428-5.339428c-4.096-3.584-8.192-5.924571-12.288-8.923429-1.755429-1.170286-3.584-1.755429-5.266286-2.925714l-1.828571-1.243429c-5.851429-3.510857-12.288-6.582857-19.236572-10.093714-0.585143 0-1.243429-0.585143-1.828571-0.585143-1.097143-0.585143-2.194286-0.585143-2.925715-1.170286-15.725714-6.582857-35.108571-12.434286-56.685714-18.432l-4.681143-1.170285c-3.510857-1.170286-7.021714-1.755429-10.532571-2.925715-7.021714-1.828571-14.628571-2.998857-22.747429-4.827428l-12.946285-2.340572c-5.851429-1.170286-11.702857-1.828571-17.554286-2.925714-9.362286-1.243429-18.724571-2.413714-29.842286-3.657143l-3.510857-0.585143a1073.005714 1073.005714 0 0 0-120.539429-7.094857c-95.305143 0-184.173714 11.922286-250.88 32.694857-63.780571 20.187429-86.601143 42.715429-86.601142 52.809143s22.820571 33.28 86.601142 52.882286z m38.034285-183.588571a1070.08 1070.08 0 0 1 211.163429-20.699429c36.278857 0 73.142857 1.755429 110.518857 5.339429 8.192 0.585143 16.969143 1.755429 26.331429 2.925714 0.585143 0 1.170286 0 2.925714 0.658286 1.243429 0 2.340571 0 3.510857 0.585142l13.458286 1.755429h1.755428a848.457143 848.457143 0 0 1 22.820572 3.584l4.096 0.585143c45.056 7.68 106.422857 22.528 152.649143 48.054857l-0.585143-62.317714a354.011429 354.011429 0 0 1-197.705143-29.110857 378.587429 378.587429 0 0 1-112.932572-82.578286h-2.852571c-7.606857-0.585143-15.798857-0.585143-23.990857-0.585143-91.282286 0-177.810286 10.678857-243.931429 30.281143-63.780571 19.017143-87.771429 39.204571-92.452571 49.298286L187.977143 653.970286c31.451429-17.846857 74.825143-32.109714 125.732571-43.373715zM66.852571 533.942857c0 7.753143 15.140571 24.356571 55.588572 41.618286l0.512-25.6v-2.340572l0.585143-1.755428c8.192-32.109714 36.864-59.392 85.504-81.408a405.284571 405.284571 0 0 0-108.836572 38.034286C71.533714 517.851429 67.437714 528.603429 66.852571 533.357714V533.942857z m31.524572-209.627428c-26.258286 14.848-29.257143 21.357714-29.257143 21.357714 0 30.866286-0.512 71.314286-0.512 98.596571 0.585143 0 1.097143-0.585143 2.340571-1.170285l1.170286-0.585143c9.874286-5.339429 19.894857-10.093714 30.354286-14.262857l3.584-1.755429c11.117714-4.169143 23.405714-8.338286 38.034286-13.165714 2.340571-0.512 4.022857-1.097143 6.436571-1.682286h1.097143c13.458286-3.657143 26.916571-7.168 42.715428-10.752 14.116571-2.925714 29.842286-5.851429 45.641143-8.265143l8.777143-1.170286c16.384-2.413714 31.597714-4.169143 47.981714-5.997714 13.970286-1.170286 29.842286-2.340571 48.493715-3.584h11.117714c18.212571-0.512 33.938286-1.170286 48.566857-1.170286 25.746286 0 49.737143 1.170286 72.557714 2.413715l7.021715 0.585143h4.096a355.620571 355.620571 0 0 1-30.939429-112.274286c-22.893714-0.585143-43.373714-1.170286-62.683428-1.170286-87.771429 0-162.011429 8.923429-226.377143 27.355429-21.577143 6.509714-47.396571 14.189714-68.973715 26.112l-1.243428 0.585143z m359.862857-141.897143c-108.251429 0.512-184.32 18.358857-229.376 32.621714l-5.851429 1.755429c5.851429-1.170286 11.117714-1.755429 16.969143-2.925715 49.737143-6.582857 100.644571-10.678857 156.745143-10.678857 19.968 0 39.789714 0.585143 59.684572 1.755429l1.755428-22.601143z m6.948571-177.664c-91.209143 0-178.468571 10.678857-244.516571 30.354285-63.780571 19.017143-87.771429 39.131429-92.452571 49.298286l-0.585143 103.862857c31.085714-19.017143 71.387429-34.377143 118.784-46.811428 65.536-16.676571 141.604571-25.6 218.770285-25.6h10.532572c13.458286-39.789714 33.938286-77.238857 58.514286-108.690286-23.990857-1.755429-46.226286-2.413714-69.046858-2.413714z m553.984 20.845714a287.963429 287.963429 0 0 0-206.555428-86.162286c-160.841143 0-291.84 131.876571-291.84 294.034286 0 162.084571 130.998857 294.034286 291.84 294.034286 160.914286 0 291.986286-131.949714 291.986286-294.034286a294.473143 294.473143 0 0 0-85.430858-207.872zM942.811429 209.92a28.233143 28.233143 0 0 1 28.013714 28.379429 28.233143 28.233143 0 0 1-28.013714 28.379428h-75.483429l85.723429 124.928a28.525714 28.525714 0 0 1-6.948572 39.497143 27.574857 27.574857 0 0 1-38.912-7.094857l-93.696-136.265143-93.696 136.265143a27.721143 27.721143 0 0 1-38.838857 7.094857 28.672 28.672 0 0 1-7.094857-39.497143l85.796571-124.928H684.251429a28.306286 28.306286 0 0 1-28.013715-28.379428c0-15.652571 12.653714-28.379429 28.013715-28.379429h99.693714v-32.914286H684.251429a28.306286 28.306286 0 0 1-28.013715-28.379428c0-15.652571 12.653714-28.379429 28.013715-28.379429h99.693714v-57.782857c0-16.969143 13.531429-30.72 30.354286-30.72 16.749714 0 30.281143 13.750857 30.281142 30.72v57.782857h97.865143c15.36 0 27.940571 12.726857 27.940572 28.379429a27.867429 27.867429 0 0 1-27.501715 28.379428h-97.865142v32.914286h97.865142z"  horiz-adv-x="1170" />

    
    <glyph glyph-name="icon_remind" unicode="&#58937;" d="M512 896C229.189818 896 0 666.810182 0 384s229.189818-512 512-512 512 229.189818 512 512S794.810182 896 512 896z m-40.029091-231.005091a40.029091 40.029091 0 1 0 80.058182 0v-369.012364a40.029091 40.029091 0 1 0-80.058182 0V664.994909zM512 101.981091a44.962909 44.962909 0 0 0-45.009455 45.009454c0 24.901818 20.107636 45.009455 45.009455 45.009455a45.009455 45.009455 0 1 0 0-90.018909z"  horiz-adv-x="1024" />

    
    <glyph glyph-name="icon_notice" unicode="&#58938;" d="M511.499636-80.290909c256.139636 0 464.802909 208.605091 464.802909 464.814545 0 256.221091-208.605091 464.826182-464.802909 464.826182-256.197818 0-464.802909-208.605091-464.802909-464.826182C46.696727 128.372364 255.301818-80.290909 511.499636-80.290909z m0-46.72C228.898909-127.010909 0 101.911273 0 384.477091 0 667.077818 228.898909 896 511.499636 896S1022.952727 667.077818 1022.952727 384.465455c0.058182-282.554182-228.852364-511.476364-511.453091-511.476364zM511.499636 123.659636a51.316364 51.316364 0 0 0-51.165091 51.165091 51.316364 51.316364 0 0 0 51.165091 51.176728 51.153455 51.153455 0 0 0 51.165091-51.176728 51.106909 51.106909 0 0 0-51.165091-51.165091z m3.060364 153.460364h-6.376727c-26.344727 0-47.848727 21.492364-47.848728 48.058182v262.167273a47.941818 47.941818 0 0 0 47.848728 47.848727h6.376727a47.965091 47.965091 0 0 0 48.058182-47.848727v-262.167273a47.941818 47.941818 0 0 0-48.058182-48.058182z"  horiz-adv-x="1024" />

    
    <glyph glyph-name="ico_heimingdan" unicode="&#58940;" d="M505.173333 803.498667c116.565333 0 211.399111-91.136 211.399111-202.353778 0-13.824-1.536-27.761778-3.982222-40.846222-4.835556-20.878222 9.671111-41.699556 31.288889-45.568a40.106667 40.106667 0 0 1 47.445333 30.151111c4.039111 18.545778 5.632 36.977778 5.632 56.32 0 153.6-131.072 279.495111-291.84 279.495111-160.028444 0-291.043556-125.838222-291.043555-279.495111 0-93.411556 48.241778-176.810667 122.197333-227.783111 0.967111-0.739556 2.503111-1.536 4.152889-3.015111-1.592889 0-3.185778-0.739556-4.835555-1.479112C147.456 302.421333 13.198222 128.796444 13.198222-75.093333c0-20.878222 17.635556-38.684444 40.220445-38.684445a39.537778 39.537778 0 0 1 40.163555 38.627556c0 184.604444 131.868444 339.740444 309.532445 383.715555 4.096 0.853333 8.021333 2.332444 12.003555 3.128889 0.910222 0 1.706667 0 3.299556 0.796445a45.511111 45.511111 0 0 1 20.878222 15.36 52.736 52.736 0 0 1 14.449778 37.091555 53.077333 53.077333 0 0 1-8.817778 29.354667 54.044444 54.044444 0 0 1-21.731556 20.138667c-1.592889 0.682667-4.096 2.275556-5.632 2.275555-72.362667 31.630222-122.993778 102.684444-122.993777 184.547556 0 111.160889 94.833778 202.24 210.602666 202.24z m257.536-423.424a248.888889 248.888889 0 1 1 0-497.777778 248.888889 248.888889 0 0 1 0 497.777778z m0.056889-452.380445a203.377778 203.377778 0 1 0 0 406.812445 203.377778 203.377778 0 0 0 0-406.755556z m69.233778 242.972445h-142.222222a35.555556 35.555556 0 0 1 0-71.111111h142.222222a35.555556 35.555556 0 0 1 0 71.111111z"  horiz-adv-x="1024" />

    
    <glyph glyph-name="ico_" unicode="&#58941;" d="M512 896C229.201455 896 0 666.798545 0 384s229.201455-512 512-512 512 229.201455 512 512S794.798545 896 512 896z m260.305455-356.398545L412.8 178.897455l-0.395636-0.395637a35.933091 35.933091 0 0 0-26.298182-11.403636 35.851636 35.851636 0 0 0-31.301818 18.199273l-108.904728 190.405818a35.898182 35.898182 0 0 0 13.405091 49.105454 35.898182 35.898182 0 0 0 49.105455-13.405091l85.387636-149.504 327.505455 328.494546a36.002909 36.002909 0 0 0 51.002182-50.792727z"  horiz-adv-x="1024" />

    
    <glyph glyph-name="Shape" unicode="&#58943;" d="M512 896a512 512 0 1 1 0-1024A512 512 0 0 1 512 896z m68.16-804.224h-136.32v116.608h136.32v-116.608z m0 212.8h-136.32V676.224h136.32V304.64z"  horiz-adv-x="1024" />

    
    <glyph glyph-name="ico_jiaoyiheimingdan" unicode="&#58944;" d="M505.173333 803.498667c116.565333 0 211.399111-91.136 211.399111-202.353778 0-13.824-1.536-27.761778-3.982222-40.846222-4.835556-20.878222 9.671111-41.699556 31.288889-45.568a40.106667 40.106667 0 0 1 47.445333 30.151111c4.039111 18.545778 5.632 36.977778 5.632 56.32 0 153.6-131.072 279.495111-291.84 279.495111-160.028444 0-291.043556-125.838222-291.043555-279.495111 0-93.411556 48.241778-176.810667 122.197333-227.783111 0.967111-0.739556 2.503111-1.536 4.152889-3.015111-1.592889 0-3.185778-0.739556-4.835555-1.479112C147.456 302.421333 13.198222 128.796444 13.198222-75.093333c0-20.878222 17.635556-38.684444 40.220445-38.684445a39.537778 39.537778 0 0 1 40.163555 38.627556c0 184.604444 131.868444 339.740444 309.532445 383.715555 4.096 0.853333 8.021333 2.332444 12.003555 3.128889 0.910222 0 1.706667 0 3.299556 0.796445a45.511111 45.511111 0 0 1 20.878222 15.36 52.736 52.736 0 0 1 14.449778 37.091555 53.077333 53.077333 0 0 1-8.817778 29.354667 54.044444 54.044444 0 0 1-21.731556 20.138667c-1.592889 0.682667-4.096 2.275556-5.632 2.275555-72.362667 31.630222-122.993778 102.684444-122.993777 184.547556 0 111.160889 94.833778 202.24 210.602666 202.24zM760.945778-113.891556A249.173333 249.173333 0 0 0 512 135.054222 249.173333 249.173333 0 0 0 760.945778 384a249.173333 249.173333 0 0 0 248.945778-248.945778 249.173333 249.173333 0 0 0-248.945778-248.945778z m0 452.380445A203.662222 203.662222 0 0 1 557.511111 135.054222a203.662222 203.662222 0 0 1 203.434667-203.434666 203.662222 203.662222 0 0 1 203.434666 203.434666A203.662222 203.662222 0 0 1 760.945778 338.488889zM882.915556 156.444444H625.777778v41.528889h207.416889l-17.237334 16.156445 19.512889 33.336889 57.116445-53.532445c5.688889-5.347556 8.021333-14.677333 5.859555-23.210666-2.218667-8.533333-8.533333-14.279111-15.530666-14.279112z m-186.936889-115.256888l-57.173334 54.442666a24.917333 24.917333 0 0 0-5.802666 23.552c2.161778 8.647111 8.533333 14.506667 15.530666 14.506667h257.137778v-42.097778h-207.473778l17.237334-16.497778-19.456-33.905777z"  horiz-adv-x="1024" />

    
    <glyph glyph-name="icon_xiaoxitongzhi" unicode="&#58946;" d="M608.938667 804.992C608.938667 855.04 562.005333 896 504.021333 896 446.122667 896 398.976 855.253333 398.976 804.992c0-5.205333 0.426667-10.24 1.365333-15.104-144.981333-43.776-264.106667-178.346667-264.106666-337.450667v-125.312s0-157.952-51.2-159.488c-30.336 0-53.802667-20.48-53.802667-45.610666 0-25.258667 23.466667-45.44 52.48-45.44h840.277333c29.184 0 52.48 20.352 52.48 45.482666 0 25.344-23.466667 45.397333-52.48 45.397334-52.565333 0-52.565333 158.208-52.565333 158.208v126.634666c0 159.36-111.232 293.973333-264.106667 337.578667 1.109333 5.034667 1.706667 9.898667 1.706667 15.018667l-0.085333 0.085333z m52.48-779.392c-0.128-75.434667-52.181333-153.6-157.44-153.6-105.301333 0-157.397333 77.952-157.525334 153.6h314.965334z"  horiz-adv-x="1024" />

    
    <glyph glyph-name="ico_tixianheimingdan" unicode="&#58947;" d="M505.173333 803.498667c116.565333 0 211.399111-91.136 211.399111-202.353778 0-13.824-1.536-27.761778-3.982222-40.846222-4.835556-20.878222 9.671111-41.699556 31.288889-45.568a40.106667 40.106667 0 0 1 47.445333 30.151111c4.039111 18.545778 5.632 36.977778 5.632 56.32 0 153.6-131.072 279.495111-291.84 279.495111-160.028444 0-291.043556-125.838222-291.043555-279.495111 0-93.411556 48.241778-176.810667 122.197333-227.783111 0.967111-0.739556 2.503111-1.536 4.152889-3.015111-1.592889 0-3.185778-0.739556-4.835555-1.479112C147.456 302.421333 13.198222 128.796444 13.198222-75.093333c0-20.878222 17.635556-38.684444 40.220445-38.684445a39.537778 39.537778 0 0 1 40.163555 38.627556c0 184.604444 131.868444 339.740444 309.532445 383.715555 4.096 0.853333 8.021333 2.332444 12.003555 3.128889 0.910222 0 1.706667 0 3.299556 0.796445a45.511111 45.511111 0 0 1 20.878222 15.36 52.736 52.736 0 0 1 14.449778 37.091555 53.077333 53.077333 0 0 1-8.817778 29.354667 54.044444 54.044444 0 0 1-21.731556 20.138667c-1.592889 0.682667-4.096 2.275556-5.632 2.275555-72.362667 31.630222-122.993778 102.684444-122.993777 184.547556 0 111.160889 94.833778 202.24 210.602666 202.24zM763.164444-77.994667c-119.580444 0-198.997333 77.368889-198.997333 197.518223 0 120.092444 78.791111 202.865778 198.371556 202.865777 114.289778 0 195.185778-72.021333 202.24-186.538666l2.104889-1.479111 41.528888-0.227556-0.284444 3.868444a246.499556 246.499556 0 0 1-71.338667 160.028445 244.337778 244.337778 0 0 1-346.851555 0 245.418667 245.418667 0 0 1-52.508445-78.279111c-12.8-30.378667-19.342222-62.577778-19.342222-95.800889 0-33.223111 6.542222-65.422222 19.342222-95.857778 12.344889-29.297778 29.980444-55.637333 52.508445-78.222222a243.996444 243.996444 0 0 1 173.397333-72.135111 242.858667 242.858667 0 0 1 171.576889 70.314666l6.371556 6.257778-45.454223 12.003556c-39.822222-31.857778-83.171556-44.316444-132.664889-44.316445z m78.677334 188.529778a14.165333 14.165333 0 0 1 13.994666 14.222222 14.165333 14.165333 0 0 1-13.994666 14.279111h-61.781334v8.248889a9.386667 9.386667 0 0 1 0.682667 1.820445l60.017778 64.056889a14.449778 14.449778 0 0 1 0 20.081777 13.767111 13.767111 0 0 1-19.854222 0l-54.784-59.164444-54.784 59.107556a13.824 13.824 0 0 1-19.911111 0 14.392889 14.392889 0 0 1 0-20.024889l59.960888-64.113778a11.036444 11.036444 0 0 1 0.739556-1.820445v-8.192h-61.724444a14.165333 14.165333 0 0 1-13.994667-14.222222c0-7.850667 6.257778-14.279111 13.994667-14.279111h61.724444v-17.009778h-61.724444a14.165333 14.165333 0 0 1-13.994667-14.222222c0-7.907556 6.257778-14.222222 13.994667-14.222222h61.724444v-41.528889c0-7.793778 6.257778-14.222222 13.994667-14.222222a14.108444 14.108444 0 0 1 13.994666 14.222222v41.528889h61.724445a14.165333 14.165333 0 0 1 13.994666 14.222222c0 7.850667-6.314667 14.222222-13.994666 14.222222h-61.781334v17.009778h61.781334z m205.710222-61.269333a8.760889 8.760889 0 0 1-1.137778 1.991111l-0.284444 0.341333a8.533333 8.533333 0 0 1-1.251556 1.934222l-52.110222 55.182223a12.856889 12.856889 0 0 1-18.545778 0.341333 13.539556 13.539556 0 0 1-0.284444-18.830222l30.833778-32.654222h-115.655112a13.198222 13.198222 0 0 1-13.084444-13.312c0-7.395556 5.859556-13.312 13.084444-13.312h115.655112l-30.890667-32.654223a13.539556 13.539556 0 0 1 0.341333-18.773333 12.913778 12.913778 0 0 1 18.545778 0.341333l52.053333 55.182223c0.568889 0.625778 0.853333 1.251556 1.137778 1.649777l0.056889 0.170667 0.284444 0.398222c0.341333 0.455111 0.853333 1.137778 1.194667 2.048a13.368889 13.368889 0 0 1 0 9.955556z"  horiz-adv-x="1080" />

    
    <glyph glyph-name="juweb_shezhi" unicode="&#58948;" d="M511.648242 595.086878a211.886328 211.886328 0 0 1-211.822372-211.502592A211.886328 211.886328 0 0 1 511.648242 172.14565a211.886328 211.886328 0 0 1 211.822372 211.438636A211.886328 211.886328 0 0 1 511.648242 595.086878z m0-353.229155a141.982387 141.982387 0 0 0-141.982387 141.726563 141.982387 141.982387 0 0 0 283.964774 0A141.982387 141.982387 0 0 0 511.648242 241.857723z m438.930235 291.383674h-42.21098a14.390107 14.390107 0 0 0-13.430766 8.953844 14.326151 14.326151 0 0 0 3.197802 15.733183l29.80351 29.867466a69.839985 69.839985 0 0 1 0 98.556243l-113.074262 112.946349a69.712073 69.712073 0 0 1-49.374055 20.401974c-17.907688 0-35.815377-6.843295-49.374056-20.401974l-29.931422-29.80351a14.454063 14.454063 0 0 0-24.750983 10.232965v42.21098C661.433265 860.312535 630.030854 896 591.59328 896h-159.890076c-38.50153 0-69.839985-35.751421-69.839985-74.061083v-42.21098a14.390107 14.390107 0 0 0-14.518019-14.454063 14.709887 14.709887 0 0 0-10.232965 4.221098l-29.931422 29.80351a69.712073 69.712073 0 0 1-49.374055 20.401974c-17.907688 0-35.815377-6.843295-49.374055-20.401974L95.358441 686.352133a69.776029 69.776029 0 0 1 0-98.556243l29.867466-29.867466a14.326151 14.326151 0 0 0 3.197802-15.733183 14.390107 14.390107 0 0 0-13.430767-8.953844h-42.21098C34.216476 533.241397 0 501.838986 0 463.529324V303.76716c0-38.373618 34.280432-69.712073 72.718006-69.712073h42.21098a14.454063 14.454063 0 0 0 10.232965-24.750984l-29.80351-29.867466a69.839985 69.839985 0 0 1 0-98.556242l113.074262-112.94635a69.712073 69.712073 0 0 1 98.74811 0l29.867466 29.80351a14.645931 14.645931 0 0 0 15.79714 3.133846c5.500219-2.238461 8.953844-7.482856 8.953844-13.36681v-42.21098c0-38.373618 31.466367-72.590094 69.839985-72.590095H591.59328c38.373618 0 69.839985 34.216476 69.839985 72.654051v42.21098a14.454063 14.454063 0 0 0 14.518018 14.454062c3.837362 0 7.482856-1.470989 10.232965-4.285054l29.931422-29.80351a69.712073 69.712073 0 0 1 98.748111 0l113.074262 112.94635a69.839985 69.839985 0 0 1 0 98.556242l-29.867467 29.867466a14.454063 14.454063 0 0 0 10.232965 24.687028h42.21098C989.080007 234.055087 1023.296484 265.393542 1023.296484 303.76716V463.465368c0 38.373618-34.280432 69.712073-72.718007 69.712073z m2.941978-229.474237h-45.216914a84.166136 84.166136 0 0 1-59.60702-143.773156l29.867466-29.80351-113.074261-112.946349-29.931422 29.867466a83.974268 83.974268 0 0 1-91.904816 18.227468 83.974268 83.974268 0 0 1-52.060208-77.834488v-45.089002h-159.890076v45.089002a84.038224 84.038224 0 0 1-84.42196 84.230091 83.7824 83.7824 0 0 1-59.543064-24.623071l-29.931422-29.867466-113.074262 112.946349 29.867467 29.80351a84.166136 84.166136 0 1 1-59.607021 143.773156h-45.152957V463.465368h45.152957a84.038224 84.038224 0 0 1 59.607021 143.773156l-29.867467 29.867466L257.742802 750.052339l29.931422-29.867466c15.925052-15.925052 37.094498-24.623072 59.543064-24.623072a83.974268 83.974268 0 0 1 84.42196 84.230092V826.287927h159.890076v-46.55999a83.910312 83.910312 0 0 1 84.358003-84.166136c22.512523 0 43.681969 8.69802 59.607021 24.623072l29.931422 29.867466 113.074261-112.946349-29.867466-29.867466c-24.239335-24.175379-31.338455-60.118668-18.291425-91.776904 13.110986-31.594279 43.681969-51.996253 77.898445-51.996252h45.216914V303.76716z"  horiz-adv-x="1024" />

    
    <glyph glyph-name="ico--gengduo" unicode="&#58949;" d="M225.28 512a96 96 0 1 1-2.496-192 96 96 0 0 1 2.496 192z m608 0a96 96 0 0 1 0-192 96 96 0 0 1 0 192zM529.28 512a96 96 0 1 1-2.496-192 96 96 0 0 1 2.496 192z"  horiz-adv-x="1024" />

    
    <glyph glyph-name="ico--shouqi" unicode="&#58950;" d="M824.32 248.32l-320 318.08c-12.8 12.8-33.28 12.8-45.44 0-1.92-1.28-2.56-2.56-3.2-3.84l-318.08-314.24c-12.8-12.8-12.8-32.64 0-45.44 12.8-12.8 33.28-12.8 45.44 0l298.88 295.04 296.96-295.04c12.8-12.8 33.28-12.8 45.44 0 12.16 12.8 12.16 33.28 0 45.44z"  horiz-adv-x="1024" />

    
    <glyph glyph-name="ico--zhankai" unicode="&#58951;" d="M824.32 519.68l-320-318.08c-12.8-12.8-33.28-12.8-45.44 0-1.92 1.28-2.56 2.56-3.2 3.84L137.6 519.68c-12.8 12.8-12.8 32.64 0 45.44 12.8 12.8 33.28 12.8 45.44 0l298.88-295.04 296.96 295.04c12.8 12.8 33.28 12.8 45.44 0 12.16-12.8 12.16-33.28 0-45.44z"  horiz-adv-x="1024" />

    
    <glyph glyph-name="ico--shezhi" unicode="&#58952;" d="M525.44 201.92c102.4 0 182.4 83.2 182.4 185.6 0 102.4-83.2 185.6-182.4 185.6-102.4 0-182.4-83.2-182.4-185.6 0-102.4 83.2-185.6 182.4-185.6z m0 51.2c-73.6 0-134.4 60.8-134.4 134.4 0 73.6 60.8 134.4 134.4 134.4 73.6 0 134.4-60.8 134.4-134.4 0-73.6-60.8-134.4-134.4-134.4zM262.4 56.32c35.2-28.8 73.6-51.2 112-67.2 41.6 38.4 96 60.8 150.4 60.8 57.6 0 108.8-22.4 150.4-60.8 41.6 16 80 38.4 112 67.2-12.8 54.4-3.2 112 22.4 163.2 28.8 48 73.6 86.4 128 102.4 3.2 22.4 6.4 44.8 6.4 67.2 0 22.4-3.2 44.8-6.4 67.2-54.4 16-99.2 54.4-128 102.4-28.8 48-35.2 108.8-22.4 163.2-35.2 28.8-73.6 51.2-112 67.2-41.6-38.4-92.8-60.8-150.4-60.8-54.4 0-108.8 22.4-150.4 60.8-41.6-16-80-38.4-112-67.2 12.8-54.4 3.2-112-22.4-163.2-28.8-48-73.6-86.4-128-102.4-3.2-22.4-6.4-44.8-6.4-67.2 0-22.4 3.2-44.8 6.4-67.2 54.4-16 99.2-54.4 128-102.4 25.6-51.2 35.2-108.8 22.4-163.2z m112-115.2c-54.4 19.2-105.6 48-150.4 89.6-6.4 6.4-9.6 16-6.4 22.4 16 48 9.6 99.2-16 140.8-25.6 44.8-64 73.6-112 83.2-9.6 3.2-16 9.6-16 19.2-6.4 28.8-9.6 60.8-9.6 89.6 0 28.8 3.2 57.6 9.6 89.6 3.2 9.6 9.6 16 16 19.2 48 12.8 89.6 41.6 112 83.2 25.6 44.8 28.8 92.8 16 140.8-3.2 9.6 0 19.2 6.4 22.4 44.8 38.4 96 67.2 150.4 89.6 9.6 3.2 16 0 22.4-6.4 35.2-35.2 80-57.6 128-57.6s96 19.2 128 57.6c6.4 6.4 16 9.6 22.4 6.4 54.4-19.2 105.6-48 150.4-89.6 6.4-6.4 9.6-16 6.4-22.4-16-48-9.6-99.2 16-140.8 25.6-44.8 64-73.6 112-83.2 9.6-3.2 16-9.6 16-19.2 6.4-28.8 9.6-60.8 9.6-89.6 0-28.8-3.2-57.6-9.6-89.6-3.2-9.6-9.6-16-16-19.2-48-12.8-89.6-41.6-112-83.2-25.6-44.8-28.8-92.8-16-140.8 3.2-9.6 0-19.2-6.4-22.4-44.8-38.4-96-67.2-150.4-89.6-9.6-3.2-16 0-22.4 6.4-35.2 35.2-80 57.6-128 57.6s-96-19.2-128-57.6c-3.2-3.2-9.6-6.4-16-6.4h-6.4z"  horiz-adv-x="1024" />

    
    <glyph glyph-name="icon_shezhi" unicode="&#58939;" d="M341.902222 387.640889a169.187556 169.187556 0 1 1 338.375111 0 169.187556 169.187556 0 0 1-338.432 0z m169.130667 56.433778a56.376889 56.376889 0 1 0 0-112.810667 56.376889 56.376889 0 0 0 0 112.810667zM881.607111 632.433778l-342.357333 199.111111a56.376889 56.376889 0 0 1-56.376889 0l-342.357333-199.111111a56.376889 56.376889 0 0 1-28.216889-49.038222v-397.653334a56.376889 56.376889 0 0 1 28.216889-49.095111l342.357333-200.248889a56.376889 56.376889 0 0 1 56.376889 0l342.357333 198.542222a56.376889 56.376889 0 0 1 28.216889 49.095112v399.928888a56.376889 56.376889 0 0 1-28.216889 48.469334zM797.013333 218.453333l-285.980444-165.831111-285.923556 165.831111V551.253333l285.923556 165.831111L797.013333 551.253333v-332.8z"  horiz-adv-x="1024" />

    
    <glyph glyph-name="icon_shuaxin" unicode="&#58942;" d="M232.391111 484.010667A296.903111 296.903111 0 0 0 512 681.187556c56.32 0 108.771556-15.928889 153.6-43.121778l-54.556444-95.573334 296.789333-149.902222A396.060444 396.060444 0 0 1 512 780.288a395.946667 395.946667 0 0 1-373.191111-263.850667c13.937778-72.533333 79.530667-56.718222 93.582222-32.426666z m556.714667-206.677334A296.846222 296.846222 0 0 0 512 86.755556a295.367111 295.367111 0 0 0-157.411556 45.454222l48.298667 77.198222-286.72 164.750222A396.060444 396.060444 0 0 1 512-12.288a395.946667 395.946667 0 0 1 374.044444 266.638222c16.327111 47.160889-62.634667 112.241778-96.938666 22.983111z"  horiz-adv-x="1024" />

    
    <glyph glyph-name="icon_fanhui" unicode="&#58945;" d="M614.627556 586.752H458.069333V716.856889L115.712 541.980444l342.357333-174.819555V497.208889h169.073778c133.688889 0 200.476444-57.571556 200.476445-172.714667 0-119.466667-68.949333-176.981333-208.782223-176.981333h-392.533333v-91.704889h398.791111c187.847111 0 283.875556 87.438222 283.875556 260.152889 0 181.248-98.076444 270.791111-294.343111 270.791111z"  horiz-adv-x="1024" />

    
    <glyph glyph-name="ico--guanbi" unicode="&#58953;" d="M539.392 403.328l244.928 244.928a32.064 32.064 0 0 1 0 45.12l-1.28 1.344a32.064 32.064 0 0 1-45.184 0L492.928 449.472 248 694.72a32.064 32.064 0 0 1-45.12 0l-1.344-1.28a31.488 31.488 0 0 1 0-45.184l244.928-244.928-244.928-244.928a32.064 32.064 0 0 1 0-45.12l1.28-1.344a32.064 32.064 0 0 1 45.184 0l244.928 244.928 244.928-244.928a32.064 32.064 0 0 1 45.12 0l1.344 1.28a32.064 32.064 0 0 1 0 45.184L539.392 403.328z"  horiz-adv-x="1024" />

    


  </font>
</defs>
</svg>
